<?xml version="1.0" encoding="UTF-8" standalone="no"?>
<!-- Created with Inkscape (http://www.inkscape.org/) -->

<svg
   xmlns:dc="http://purl.org/dc/elements/1.1/"
   xmlns:cc="http://creativecommons.org/ns#"
   xmlns:rdf="http://www.w3.org/1999/02/22-rdf-syntax-ns#"
   xmlns:svg="http://www.w3.org/2000/svg"
   xmlns="http://www.w3.org/2000/svg"
   xmlns:sodipodi="http://sodipodi.sourceforge.net/DTD/sodipodi-0.dtd"
   xmlns:inkscape="http://www.inkscape.org/namespaces/inkscape"
   width="210mm"
   height="297mm"
   viewBox="0 0 744.09448819 1052.3622047"
   id="svg2"
   version="1.1"
   inkscape:version="0.91 r13725"
   sodipodi:docname="ToFlow.svg">
  <defs
     id="defs4" />
  <sodipodi:namedview
     id="base"
     pagecolor="#ffffff"
     bordercolor="#666666"
     borderopacity="1.0"
     inkscape:pageopacity="0.0"
     inkscape:pageshadow="2"
     inkscape:zoom="2.8"
     inkscape:cx="419.13373"
     inkscape:cy="868.79588"
     inkscape:document-units="px"
     inkscape:current-layer="layer1"
     showgrid="false"
     inkscape:window-width="1280"
     inkscape:window-height="994"
     inkscape:window-x="0"
     inkscape:window-y="30"
     inkscape:window-maximized="1" />
  <metadata
     id="metadata7">
    <rdf:RDF>
      <cc:Work
         rdf:about="">
        <dc:format>image/svg+xml</dc:format>
        <dc:type
           rdf:resource="http://purl.org/dc/dcmitype/StillImage" />
        <dc:title></dc:title>
      </cc:Work>
    </rdf:RDF>
  </metadata>
  <g
     inkscape:label="Layer 1"
     inkscape:groupmode="layer"
     id="layer1">
    <path
       style="fill:none;fill-rule:evenodd;stroke:#000000;stroke-width:0.72744042px;stroke-linecap:butt;stroke-linejoin:miter;stroke-opacity:1"
       d="m 113.06558,70.078777 c 85.73405,50.920823 85.73405,50.920823 85.73405,50.920823 l -70.14604,50.92083"
       id="path3336"
       inkscape:connector-curvature="0" />
    <path
       inkscape:connector-curvature="0"
       id="path3338"
       d="m 180.92988,66.038167 c 85.73405,50.920823 85.73405,50.920823 85.73405,50.920823 l -70.14604,50.92083"
       style="fill:none;fill-rule:evenodd;stroke:#000000;stroke-width:0.72744042px;stroke-linecap:butt;stroke-linejoin:miter;stroke-opacity:1" />
    <path
       style="fill:none;fill-rule:evenodd;stroke:#000000;stroke-width:1px;stroke-linecap:butt;stroke-linejoin:miter;stroke-opacity:1"
       d="m 298.444,110.01212 c 0,0 19.05047,-15.454315 35.47904,-0.45432 16.42858,15 0.79569,33.22063 0.79569,33.22063 1.63177,-1.86858 -8.73965,11.71999 -12.65998,14.97879 -7.14285,5.53572 -11.47236,9.46691 -18.30094,12.76786 -9.3193,2.35953 -18.07668,-0.0706 -21.87763,-6.07142 -1.26972,-2.00458 -2.3128,-5.78121 0.061,-10.34969 2.13574,-4.11033 5.35623,-7.05468 11.72389,-6.69746 11.82574,0.66342 30.62021,13.443 36.60934,18.29732 l 5.17722,4.19625 c 0,0 3.60618,2.65959 5.66783,3.21516 3.41086,0.91916 0.60268,0.26786 5.98527,1.0285"
       id="path3350"
       inkscape:connector-curvature="0"
       sodipodi:nodetypes="cscccsssscsc" />
    <path
       style="fill:none;fill-rule:evenodd;stroke:#000000;stroke-width:1px;stroke-linecap:butt;stroke-linejoin:miter;stroke-opacity:1"
       d="m 369.68502,107.6978 -0.12627,66.13085 0.35714,0"
       id="path3352"
       inkscape:connector-curvature="0"
       sodipodi:nodetypes="ccc" />
    <path
       style="fill:none;fill-rule:evenodd;stroke:#000000;stroke-width:1px;stroke-linecap:butt;stroke-linejoin:miter;stroke-opacity:1"
       d="m 369.91589,135.61436 20,-2.85714"
       id="path3354"
       inkscape:connector-curvature="0"
       sodipodi:nodetypes="cc" />
    <path
       style="fill:none;fill-rule:evenodd;stroke:#000000;stroke-width:1px;stroke-linecap:butt;stroke-linejoin:miter;stroke-opacity:1"
       d="m 369.55875,173.11436 c -8.34973,-69.15027 -22.50856,-63.92 7.5,-65.71429 31.14688,-1.86235 24.27233,-1.29457 29.08643,-1.69039"
       id="path3356"
       inkscape:connector-curvature="0"
       sodipodi:nodetypes="csc" />
    <path
       style="fill:#ffffff;fill-opacity:0.94117647;stroke:#ffffff;stroke-width:0.48199999;stroke-miterlimit:4;stroke-dasharray:none;stroke-opacity:1"
       id="path4177"
       d="m 351.40884,191.52277 c 4.05818,0.0682 8.1084,0.33063 12.16275,0.5099 7.85279,0.31583 15.71257,0.36363 23.57053,0.403 6.925,0.0225 13.85022,0.025 20.77485,-0.0566 2.77412,-0.1203 5.54473,0.0636 8.31512,0.17237 2.10982,0.16067 4.23041,0.19185 6.27548,0.77463 1.02785,0.33361 2.30016,0.63241 2.90209,1.63362 0.0936,0.15574 0.15072,0.3307 0.22607,0.49605 0.27937,0.9293 0.081,1.85625 -0.18646,2.76026 -0.27036,0.93984 -0.98887,1.52894 -1.71411,2.13117 -1.90105,1.24994 -3.72111,2.61231 -5.57986,3.92411 -6.53555,4.24288 -13.44084,7.88348 -20.31566,11.53808 -1.70177,0.89774 -4.94295,2.5979 -6.63766,3.53019 -1.07152,0.58946 -2.1632,1.14693 -3.19511,1.80326 -0.24524,0.15599 1.04485,-0.47884 0.82112,-0.29332 -0.97076,0.805 -2.07357,1.4363 -3.09366,2.1778 -1.04232,0.75766 -2.0619,1.54611 -3.09285,2.31917 -3.44954,2.7029 -6.94576,5.35342 -10.6402,7.71592 -2.28241,1.45954 -5.39586,3.15771 -7.44278,4.32679 -0.93629,0.50783 -1.92699,0.83879 -2.95326,1.09539 0,0 4.11772,-3.16114 4.11772,-3.16114 l 0,0 c 0.94861,-0.27736 1.87391,-0.60558 2.74448,-1.08489 -0.93915,0.55916 -1.88169,1.11267 -2.81746,1.67749 -0.621,0.37483 1.25621,-0.72605 1.87316,-1.10752 3.79581,-2.34695 7.38119,-5.01028 10.88017,-7.77554 1.38408,-1.04751 4.66071,-3.5718 6.14109,-4.51719 5.45291,-3.4823 11.10931,-6.60607 16.85598,-9.56959 7.13202,-3.80131 7.8415,-4.05429 12.0601,-6.82308 1.81266,-1.28401 3.54272,-2.6751 5.44152,-3.83346 0.66141,-0.51972 1.43376,-1.03968 1.7622,-1.84462 0.33724,-0.74472 0.52079,-1.59529 0.3902,-2.40899 -0.51006,-1.19639 -1.65204,-1.42279 -2.80478,-1.78494 -2.01892,-0.51477 -4.10658,-0.56255 -6.17746,-0.70193 -2.68537,-0.10354 -5.36463,-0.34831 -8.05398,-0.33735 -6.84831,-0.081 -13.69715,-0.0751 -20.54576,-0.11308 -7.89846,-0.0499 -15.79744,-0.1224 -23.69356,-0.33144 -4.21425,-0.12083 -8.43161,-0.32637 -12.64703,-0.13704 0,0 4.27701,-3.10743 4.27701,-3.10743 z"
       inkscape:connector-curvature="0" />
    <path
       style="fill:#ffffff;fill-opacity:0.94117647;stroke:#ffffff;stroke-width:0.48199999;stroke-miterlimit:4;stroke-dasharray:none;stroke-opacity:1"
       id="path4179"
       d="m 211.66134,235.0113 c 0.98813,-0.12123 1.98212,-0.18866 2.97624,-0.23621 0.15254,-0.005 0.30511,-0.0224 0.45761,-0.0162 0.76273,0.0311 1.51876,0.23333 2.26761,0.35768 1.25883,0.20903 1.41946,0.20389 2.79396,0.35186 4.87749,0.39913 9.77578,0.4257 14.66658,0.43971 2.46867,0.0102 4.9368,-0.0445 7.40511,-0.074 1.17411,-0.0135 2.34827,-0.0108 3.52242,-0.008 1.32188,0.0603 2.62322,-0.19503 3.92856,-0.36321 0.5277,-0.0395 1.05477,-0.0887 1.58311,-0.11842 2.40148,-0.13513 2.67958,-0.0897 5.30295,-0.16641 4.44696,-0.13009 8.89307,-0.2913 13.34017,-0.41971 7.7943,-0.14762 15.5455,-0.95669 23.24778,-2.11196 1.18735,-0.226 2.42113,-0.42254 3.54563,-0.8958 0.28352,-0.11932 0.61123,-0.34124 0.87534,-0.51018 -1.41786,0.81276 -2.83572,1.62552 -4.25359,2.43829 0.25503,-0.19749 0.40888,-0.48462 0.54599,-0.76995 0,0 4.80565,-2.24575 4.80565,-2.24575 l 0,0 c -0.0969,0.3762 -0.26516,0.69129 -0.44735,1.03239 -4.31628,2.59668 -4.65746,3.34952 -9.00127,3.88683 -7.57695,0.88925 -15.18202,1.49353 -22.80952,1.73079 -4.55475,0.17583 -9.10277,0.39597 -13.65357,0.65218 -2.279,0.12831 -3.3677,0.15425 -5.53048,0.3709 -0.5557,0.0557 -1.10841,0.13798 -1.66261,0.20697 -1.34241,0.22082 -2.68093,0.44148 -4.04746,0.35725 -1.17085,0.004 -2.34171,0.01 -3.51256,0.002 -2.38223,-0.0221 -4.76385,-0.0898 -7.14595,-0.12135 -4.93191,-0.0865 -9.86683,-0.14406 -14.79342,-0.40064 -0.55739,-0.047 -1.11576,-0.0837 -1.67219,-0.14107 -1.32885,-0.13694 -2.65245,-0.45591 -3.99605,-0.35181 -0.99661,0.0536 -1.99568,0.12295 -2.9773,0.31227 0,0 4.23861,-3.18779 4.23861,-3.18779 z"
       inkscape:connector-curvature="0" />
    <path
       style="fill:#ffffff;fill-opacity:0.94117647;stroke:#ffffff;stroke-width:0.48199999;stroke-miterlimit:4;stroke-dasharray:none;stroke-opacity:1"
       id="path4192"
       d="m 243.41898,22.072525 c 1.54261,0.637625 3.0382,1.384666 4.62119,1.924491 0.70256,0.239588 1.41631,0.445062 2.12446,0.667593 10.33175,2.837564 21.09227,3.530896 31.74249,4.117726 10.65256,0.450649 21.32073,0.551113 31.97902,0.273093 4.24853,-0.02379 8.46056,-0.560642 12.67363,-1.036836 1.4423,-0.115713 2.76002,-0.691907 4.1147,-1.140249 0,0 -13.5243,10.447031 -13.5243,10.447031 l 0,0 c -1.30671,0.355763 -2.63888,0.570299 -3.99632,0.602883 -3.78362,0.185465 -7.56662,0.223744 -11.34601,-0.113966 -10.14404,-0.482918 -20.29961,-0.752397 -30.43161,-1.47734 -6.77827,-0.444646 -13.55892,-0.848971 -20.33737,-1.290634 -4.26616,-0.277971 -6.431,-0.372967 -10.52302,-0.863539 -1.14327,-0.137061 -2.27884,-0.332111 -3.41826,-0.498167 -0.85081,-0.161319 -1.70556,-0.303127 -2.55245,-0.483957 -1.77103,-0.378157 -3.48385,-1.106639 -5.30861,-1.177618 0,0 14.18246,-9.950511 14.18246,-9.950511 z"
       inkscape:connector-curvature="0" />
    <path
       style="fill:#ffffff;fill-opacity:0.94117647;stroke:#ffffff;stroke-width:0.48199999;stroke-miterlimit:4;stroke-dasharray:none;stroke-opacity:1"
       id="path4194"
       d="m 327.04167,28.694362 c -1.19103,2.040207 -3.086,3.561972 -4.81003,5.137665 -2.0566,1.851791 -4.16186,3.705052 -6.58422,5.074197 -16.10811,9.104446 -10.30109,7.037897 -18.74977,9.757984 -5.5366,1.645889 -11.25294,2.695212 -17.01456,3.087059 -1.20984,-0.07602 -2.20008,-0.0147 -3.32516,-0.519246 -0.43915,-0.196935 -0.80048,-0.534566 -1.20072,-0.801849 0,0 14.02614,-9.053987 14.02614,-9.053987 l 0,0 c 0.27899,0.150161 0.53972,0.340797 0.83695,0.450481 0.93121,0.34363 1.64276,0.317011 2.64104,0.394198 5.56854,-0.174295 10.99269,-1.22696 16.24924,-3.090361 6.92699,-2.740443 3.45026,-1.540311 -8.2955,5.511731 -0.64866,0.389449 1.33398,-0.717957 1.96822,-1.130485 1.50946,-0.981806 2.86392,-2.207829 4.18638,-3.42049 1.19108,-1.13417 2.39554,-2.248976 3.55181,-3.417826 0.16246,-0.164235 0.34529,-0.308519 0.49886,-0.481101 0.0982,-0.110385 0.16873,-0.242618 0.25309,-0.363928 0,0 15.76823,-7.134042 15.76823,-7.134042 z"
       inkscape:connector-curvature="0" />
    <path
       style="fill:#ffffff;fill-opacity:0.94117647;stroke:#ffffff;stroke-width:0.48199999;stroke-miterlimit:4;stroke-dasharray:none;stroke-opacity:1"
       id="path4196"
       d="m 234.45663,16.751161 c 1.11433,1.564268 2.51884,2.87646 3.90097,4.19601 2.11509,2.01933 2.93402,2.849172 5.32043,4.6711 1.08649,0.829487 2.22709,1.585589 3.34063,2.378383 5.28994,3.533798 10.85546,6.679402 16.65957,9.292227 3.91101,1.760617 5.19447,2.134409 9.20504,3.575315 7.17198,2.443818 14.58648,4.039003 22.08328,5.06523 2.36073,0.323159 4.73667,0.460714 7.11713,0.417275 0.78954,-0.0692 1.60307,0.02257 2.39013,-0.08019 0.15686,-0.02048 0.30812,-0.07179 0.46218,-0.107683 0.18189,-0.02058 0.36378,-0.04117 0.54566,-0.06175 1.672,-0.305276 3.28263,-0.861401 4.92214,-1.297085 0.82058,-0.24483 1.62143,-0.557237 2.36212,-0.990423 0.19817,-0.115899 0.77663,-0.489488 0.57731,-0.375581 -9.31965,5.325884 -18.94122,10.91542 -13.6167,7.822743 1.27552,-0.821729 2.38729,-1.848837 3.41592,-2.958052 0.19394,-0.221735 0.38787,-0.443471 0.58181,-0.665207 0,0 15.54526,-6.621285 15.54526,-6.621285 l 0,0 c -0.18424,0.24046 -0.36849,0.480921 -0.55273,0.721381 -0.54061,0.644217 -1.04876,1.335268 -1.64579,1.929575 -0.16475,0.164002 -0.35563,0.3002 -0.52109,0.463496 -0.85861,0.84743 -0.0212,0.169858 -0.90755,0.839539 -5.34476,4.590862 -11.7613,8.257286 -18.57846,10.088473 -1.74729,0.505384 -3.49623,1.057 -5.31154,1.257214 -1.15194,0.131952 -2.31544,0.02639 -3.47222,-2.61e-4 -2.15825,-0.17173 -4.24502,-0.719616 -6.32124,-1.318824 -6.99849,-1.910563 -14.07374,-3.591096 -20.86202,-6.19016 -1.52065,-0.584113 -3.0546,-1.134723 -4.56195,-1.752341 -7.58465,-3.107712 -14.88216,-6.900768 -21.88727,-11.147614 -1.19424,-0.77459 -2.40505,-1.524222 -3.58272,-2.323772 -3.75633,-2.550252 -7.25413,-5.481267 -11.18116,-7.779268 0,0 14.57286,-9.048468 14.57286,-9.048468 z"
       inkscape:connector-curvature="0" />
    <path
       style="fill:#ffffff;fill-opacity:0.94117647;stroke:#ffffff;stroke-width:0.48199999;stroke-miterlimit:4;stroke-dasharray:none;stroke-opacity:1"
       id="path4198"
       d="m 214.37064,37.30408 c 3.82086,0.280921 7.66169,0.243194 11.49105,0.272331 9.3076,0.0293 18.61564,0.101439 27.92239,-0.04322 5.61903,-0.159626 11.24479,-0.209652 16.86201,-0.430973 1.82554,-0.07193 3.64809,-0.207256 5.4731,-0.291614 7.78458,-0.359829 1.98459,0.04993 9.30118,-0.547498 3.09241,-0.196354 6.15265,-0.647516 9.20075,-1.181588 0,0 -0.27955,0.210597 -0.27955,0.210597 l 0,0 c -3.04888,0.532495 -6.10983,0.982375 -9.20267,1.179013 -2.28943,0.186524 -7.38506,0.618607 -9.53642,0.717928 -1.74488,0.08056 -3.49306,0.06198 -5.23884,0.119855 -1.89717,0.0629 -3.792,0.189849 -5.68949,0.242452 -3.7234,0.103221 -7.45057,0.02146 -11.1729,0.187991 -9.30692,0.143881 -18.61512,0.07218 -27.92287,0.04256 -3.8302,-0.02929 -7.67243,0.01019 -11.49379,-0.276153 0,0 0.28605,-0.201687 0.28605,-0.201687 z"
       inkscape:connector-curvature="0" />
    <path
       style="fill:#ffffff;fill-opacity:0.94117647;stroke:#ffffff;stroke-width:0.48199999;stroke-miterlimit:4;stroke-dasharray:none;stroke-opacity:1"
       id="path4200"
       d="m 297.41832,33.965581 c -0.33645,-0.02398 -0.67218,-0.06247 -1.00936,-0.07194 -1.18814,-0.03338 -2.37721,0 -3.56582,0 -2.94142,0 -5.88284,0 -8.82426,0 -4.58193,-0.04996 -9.16618,0.06448 -13.7479,0 -1.88975,-0.02659 -3.69192,-0.120147 -5.5769,-0.204011 -3.54646,-0.188619 -7.08989,-0.463558 -10.62851,-0.766816 -2.64652,-0.315282 -5.28894,-0.655471 -7.93511,-0.973953 -2.86928,-0.208815 -5.65361,-0.874056 -8.32959,-1.909751 -2.33214,-0.978419 -4.49155,-2.300198 -6.78271,-3.364374 -2.03956,-1.000596 -3.84839,-2.366709 -5.56869,-3.834296 -1.14836,-0.91955 -2.25374,-1.88614 -3.34521,-2.871706 0,0 0.29748,-0.184396 0.29748,-0.184396 l 0,0 c 1.09145,0.985109 2.19684,1.951221 3.34469,2.870867 1.71856,1.46513 3.52575,2.828734 5.56356,3.826317 2.28991,1.065089 4.44906,2.386271 6.78143,3.362442 2.67513,1.032078 5.4576,1.693651 8.32463,1.902575 2.64597,0.3179 5.2879,0.660036 7.93442,0.972974 3.53843,0.302171 7.0814,0.578519 10.62768,0.765651 1.89968,0.08422 3.67004,0.176187 5.57598,0.202752 4.58175,0.06386 9.16596,-0.04948 13.74791,0 2.94142,0 5.88284,0 8.82426,0 1.1886,0 2.37761,0.03099 3.56582,0 0.40304,-0.01051 0.80493,-0.04796 1.2074,-0.07194 0,0 -0.4812,0.349613 -0.4812,0.349613 z"
       inkscape:connector-curvature="0" />
    <path
       style="fill:#ffffff;fill-opacity:0.94117647;stroke:#ffffff;stroke-width:0.48199999;stroke-miterlimit:4;stroke-dasharray:none;stroke-opacity:1"
       id="path4202"
       d="m 201.4377,-6.1392638 c 2.19524,5.41679497 4.44762,10.8071668 6.76362,16.1735338 4.35443,10.11604 8.95773,20.120038 13.7231,30.048268 3.20298,6.389746 6.25531,12.849893 9.18303,19.369657 1.17879,2.878269 3.34549,5.093232 5.43689,7.32524 2.52032,2.598003 5.22689,5.034827 8.08399,7.259643 1.70106,1.324604 2.50535,1.819292 4.25368,2.987273 2.0593,1.300199 4.15037,2.555662 6.4532,3.368065 1.79621,0.368384 3.58207,0.780132 5.37073,1.184595 1.90392,0.406963 3.71978,1.109312 5.59378,1.623986 2.32967,0.68441 4.75359,0.939781 7.1478,1.295783 1.1233,0.172433 2.2528,0.295038 3.38301,0.410393 0,0 -0.28524,0.202827 -0.28524,0.202827 l 0,0 c -1.13051,-0.115933 -2.2603,-0.239098 -3.38393,-0.411694 -2.39531,-0.355694 -4.81984,-0.613443 -7.15021,-1.299256 -1.87319,-0.515668 -3.68906,-1.21727 -5.59288,-1.622667 -1.78948,-0.405383 -3.57737,-0.812854 -5.37304,-1.187978 -2.30408,-0.815792 -4.39676,-2.074033 -6.458,-3.375357 -1.75149,-1.170739 -2.55107,-1.662526 -4.25556,-2.990247 -2.85789,-2.226174 -5.56539,-4.664018 -8.08634,-7.263464 -2.09383,-2.234996 -4.26218,-4.453596 -5.44275,-7.335228 -2.92752,-6.519533 -5.97972,-12.979413 -9.18259,-19.368883 -4.76562,-9.928627 -9.36914,-19.933035 -13.72379,-30.049489 -2.31608,-5.3664937 -4.56862,-10.75695245 -6.76384,-16.1739195 0,0 0.30534,-0.1710813 0.30534,-0.1710813 z"
       inkscape:connector-curvature="0" />
    <path
       style="fill:#ffffff;fill-opacity:0.94117647;stroke:#ffffff;stroke-width:0.48199999;stroke-miterlimit:4;stroke-dasharray:none;stroke-opacity:1"
       id="path4206"
       d="m 374.35835,162.58617 c -0.0818,0.2093 -0.15397,0.42263 -0.24539,0.62792 -0.14632,0.32859 -0.31155,0.64843 -0.46733,0.97265 -0.20279,0.44218 -0.41104,0.8819 -0.60838,1.32654 -0.76798,1.73038 -1.47043,3.47923 -2.1391,5.24992 -2.21218,2.63453 2.66707,1.05413 2.28178,1.98593 -0.66505,1.60839 -2.84607,2.07715 -3.9267,3.44151 -0.40367,0.50965 -0.22118,1.2814 -0.32267,1.92358 -0.34063,2.15527 -0.31699,2.13039 -0.58525,4.33978 -0.40344,3.8432 -0.57327,7.70607 -0.67121,11.56761 1.02256,1.1904 0.52638,0.17321 0.0732,1.67572 -0.0203,0.0672 0.10807,0.56205 0.20838,0.6705 0.0217,0.0234 0.12039,0.0156 0.0957,-0.005 -0.0464,-0.0379 -0.1137,-0.0377 -0.17055,-0.0565 0.35259,-0.95925 0.54265,-1.9575 0.78413,-2.94648 0,0 0.40933,-0.19757 0.40933,-0.19757 l 0,0 c -0.19853,1.02724 -0.59476,1.99303 -0.87374,3.00165 -0.14478,0.13395 -0.27165,0.29035 -0.43434,0.40186 -0.25224,0.17289 -0.14861,-0.49943 -0.32956,-0.70764 -0.86814,-0.99894 -1.01892,0.53059 -0.0748,-1.67877 0.0975,-3.86252 0.26713,-7.72635 0.66972,-11.5706 0.2701,-2.22892 0.24199,-2.16759 0.58454,-4.3412 0.10132,-0.6429 0.84073,-1.53331 0.32159,-1.92583 -0.81447,-0.6158 -3.17545,0.87002 -3.05979,-0.14448 0.26715,-2.34344 4.65766,-2.54152 4.70286,-5.28687 0.66812,-1.77152 1.37047,-3.52094 2.13809,-5.25211 0.19725,-0.44484 0.4054,-0.88477 0.6081,-1.32715 0.15614,-0.32343 0.32148,-0.64257 0.46842,-0.97028 0.0916,-0.20435 0.16455,-0.41658 0.24682,-0.62487 0,0 0.31615,-0.15016 0.31615,-0.15016 z"
       inkscape:connector-curvature="0" />
  </g>
</svg>
